<svg xmlns="http://www.w3.org/2000/svg" height="800" width="1200" viewBox="-5.7224595 -2.36697 49.594649 14.20182"><defs><linearGradient id="c" spreadMethod="pad" gradientTransform="matrix(9.18293 0 0 -9.18293 1097.36 44.4584)" gradientUnits="userSpaceOnUse" y2="0" x2="1" y1="0" x1="0"><stop offset="0" stop-color="#b10e3a"/><stop offset=".6025" stop-color="#ed165f"/><stop offset="1" stop-color="#ed165f"/></linearGradient><linearGradient id="b" spreadMethod="pad" gradientTransform="matrix(0 -9.88068 -9.88068 0 1126.43 35.8467)" gradientUnits="userSpaceOnUse" y2="0" x2="1" y1="0" x1="0"><stop offset="0" stop-color="#f14e27"/><stop offset=".10001" stop-color="#f14e27"/><stop offset=".91742" stop-color="#f6861f"/><stop offset="1" stop-color="#f6861f"/></linearGradient><linearGradient id="a" spreadMethod="pad" gradientTransform="matrix(9.24806 0 0 -9.24806 1097.37 49.9602)" gradientUnits="userSpaceOnUse" y2="0" x2="1" y1="0" x1="0"><stop offset="0" stop-color="#212769"/><stop offset=".19381" stop-color="#552075"/><stop offset=".21428" stop-color="#552075"/><stop offset=".22944" stop-color="#552075"/><stop offset="1" stop-color="#a82a81"/></linearGradient><clipPath id="d" clipPathUnits="userSpaceOnUse"><path d="M0 0h1213.23v841.89H0z"/></clipPath></defs><path d="M0 7.57452l3.28083 1.89336V5.6801z" fill="#f34d8a"/><path d="M0 0v3.78672l3.28083-1.89336z" fill="#ffb946"/><path d="M3.28083 1.89434L0 3.78699l3.28083 1.89336z" fill="#fa952e"/><path d="M1097.38 26.095l9.29-5.366v10.735z" fill="url(#a)" transform="matrix(.35278 0 0 -.35278 -383.85044 14.88683)"/><path d="M1097.38 26.097l9.29 5.367v.002l-9.29 5.363z" fill="url(#b)" transform="matrix(.35278 0 0 -.35278 -383.85044 14.88683)"/><path d="M1097.38 15.361l9.29 5.366v.002l-9.29 5.366z" fill="url(#c)" transform="matrix(.35278 0 0 -.35278 -383.85044 14.88683)"/><g clip-path="url(#d)" transform="matrix(.35278 0 0 -.35278 -383.85044 14.88683)"><path d="M1161.23 19.8599l-3.953 5.871 3.989 5.577h-1.393c-.809-.003-2.004-.245-2.798-1.4-.411-.601-1.369-2.092-1.379-2.095l-.041-.059-2.278 3.554h-3.547l4.075-5.754-3.95-5.694h3.284l2.413 3.477 2.388-3.477zm4.08 0v11.754c-.319-.079-1.686-.483-2.424-1.254-.319-.332-.475-.706-.475-1.013v-9.487zm14.74.5062c.561-.506 1.233-.706 2.232-.706 1.056 0 1.811.242 2.472.616v1.981c-.439-.202-.938-.322-1.49-.322h-.002c-.39 0-.709.1-.919.332-.217.229-.297.558-.297.965v5.676h2.481l1.343 2.402h-3.824v4.339c-1.131-.401-2.076-1.042-2.408-1.439-.353-.424-.477-.778-.477-1.469v-9.699c0-1.337.332-2.167.889-2.676m9.73 1.5614c-.465.284-.646.798-.646 1.265 0 .321.08.623.217.837.327.517.97.831 2.04.853.075 0 .162.005.241.005 1.187 0 1.852-.224 1.852-.224v-.945c0-.616-.271-1.452-1.153-1.836-.436-.185-.891-.282-1.325-.282-.444 0-.868.105-1.226.327m1.504 9.51c-1.606.007-3.1-.634-3.386-.848-.235-.178-.388-.417-.388-.736v-1.534c1.052.357 2.447.576 3.289.576.869 0 1.591-.102 2.074-.496.55-.449.621-1.207.621-1.566 0-.132-.01-.215-.01-.215l-.01-.047-.044.007s-1.279.142-2.622.142c-1.337 0-2.517-.251-3.321-.88-.707-.549-1.265-1.604-1.265-2.716 0-1.257.568-2.152 1.204-2.681.668-.549 1.908-.801 2.958-.801 1.125 0 1.879.185 2.359.372.47.185.663.369.663.369l.078.067v-.593h2.737v6.669c0 1.556-.273 2.821-1.078 3.644-1.067 1.085-2.308 1.267-3.859 1.267m-20.664-9.51c-.468.284-.651.798-.651 1.265 0 .321.086.623.229.837.315.517.963.831 2.028.853.087 0 .163.005.243.005 1.19 0 1.857-.224 1.857-.224v-.945c0-.616-.27-1.452-1.155-1.836-.431-.185-.896-.282-1.328-.282-.439 0-.863.105-1.223.327m1.504 9.51c-1.611.007-3.103-.634-3.383-.848-.236-.178-.392-.417-.392-.736v-1.534c1.058.357 2.444.576 3.292.576.863 0 1.591-.102 2.069-.496.55-.449.624-1.202.624-1.566 0-.132-.008-.217-.008-.217l-.014-.045-.04.007s-1.279.142-2.621.142c-1.343 0-2.51-.251-3.327-.88-.704-.549-1.262-1.604-1.262-2.716 0-1.257.558-2.152 1.204-2.681.665-.549 1.915-.801 2.956-.801 1.127 0 1.881.185 2.353.372.481.185.669.369.669.369l.082.067v-.591h2.745v6.667c0 1.556-.276 2.821-1.083 3.644-1.079 1.085-2.316 1.267-3.864 1.267m-29.724-9.51c-.468.284-.652.798-.652 1.265 0 .321.085.623.223.837.327.517.973.831 2.04.853.074 0 .161.005.24.005 1.193 0 1.852-.224 1.852-.224v-.945c0-.616-.266-1.452-1.151-1.836-.427-.185-.895-.282-1.328-.282-.446 0-.865.105-1.224.327m1.504 9.51c-1.606.007-3.103-.634-3.382-.848-.229-.178-.395-.417-.395-.736v-1.534c1.06.357 2.446.576 3.292.576.863 0 1.596-.102 2.079-.496.548-.449.615-1.202.615-1.566 0-.132-.01-.217-.01-.217l-.005-.045-.047.007s-1.277.142-2.625.142c-1.338 0-2.51-.251-3.317-.88-.71-.549-1.267-1.604-1.262-2.716 0-1.257.557-2.152 1.198-2.681.672-.549 1.912-.801 2.96-.801 1.124 0 1.874.185 2.357.372.475.185.662.369.662.369l.079.067v-.591h2.745v6.667c.003 1.556-.28 2.821-1.08 3.644-1.076 1.085-2.309 1.267-3.864 1.267" fill="#1358aa"/></g><path d="M9.8178 5.86055L8.48784 3.87229h1.2894l.71615 1.13842.72284-1.13842h1.26047l-1.32891 1.97697 1.38747 2.0694h-1.2894l-.77576-1.22132-.78034 1.22132H8.43033zm3.13973-1.98925h1.12077v3.06352h1.95862v.98355h-3.0794z" fill="#1358aa"/></svg>